<?xml version="1.0" encoding="utf-8"?>
<!-- Generator: Adobe Illustrator 15.1.0, SVG Export Plug-In . SVG Version: 6.00 Build 0)  -->
<!DOCTYPE svg PUBLIC "-//W3C//DTD SVG 1.1//EN" "http://www.w3.org/Graphics/SVG/1.1/DTD/svg11.dtd">
<svg version="1.1" id="Layer_1" xmlns="http://www.w3.org/2000/svg" xmlns:xlink="http://www.w3.org/1999/xlink" x="0px" y="0px"
	 width="401.725px" height="131.316px" viewBox="0 0 401.725 131.316" enable-background="new 0 0 401.725 131.316"
	 xml:space="preserve">
<g>
	<path fill="#100E0F" d="M201.392,67.588h-20.85c-0.539,0-0.976,0.436-0.976,0.975v10.193c0,0.539,0.438,0.977,0.976,0.977h8.133
		v12.664c0,0-1.826,0.623-6.875,0.623c-5.955,0-14.277-2.176-14.277-20.475c0-18.305,8.666-20.711,16.802-20.711
		c7.043,0,10.075,1.238,12.006,1.836c0.604,0.186,1.168-0.418,1.168-0.957l2.326-9.851c0-0.252-0.087-0.555-0.373-0.76
		c-0.785-0.56-5.566-3.234-17.65-3.234c-13.918,0-28.195,5.922-28.195,34.39c0,28.467,16.349,32.709,30.121,32.709
		c11.406,0,18.324-4.873,18.324-4.873c0.285-0.158,0.316-0.557,0.316-0.74V68.563C202.366,68.023,201.931,67.588,201.392,67.588z"/>
	<path fill="#100E0F" d="M308.845,42.279c0-0.543-0.432-0.979-0.969-0.979h-11.738c-0.537,0-0.973,0.438-0.973,0.979
		c0,0.003,0.002,22.688,0.002,22.688h-18.299V42.279c0-0.543-0.435-0.979-0.972-0.979h-11.737c-0.533,0-0.972,0.438-0.972,0.979
		v61.433c0,0.543,0.438,0.981,0.972,0.981h11.739c0.537,0,0.97-0.44,0.97-0.981V77.434h18.299c0,0-0.029,26.275-0.029,26.277
		c0,0.543,0.437,0.979,0.973,0.979h11.769c0.537,0,0.969-0.438,0.971-0.979L308.845,42.279L308.845,42.279z"/>
	<g>
		<g>
			<path fill="#100E0F" d="M223.546,50.339c0-4.228-3.389-7.644-7.57-7.644c-4.178,0-7.567,3.416-7.567,7.644
				c0,4.223,3.393,7.647,7.567,7.647C220.157,57.988,223.546,54.562,223.546,50.339z"/>
			<path fill="#100E0F" d="M222.706,90.752c0-1.574,0-28.357,0-28.357c0-0.539-0.435-0.979-0.972-0.979h-11.702
				c-0.537,0-1.019,0.553-1.019,1.092c0,0,0,34.123,0,40.627c0,1.193,0.744,1.549,1.707,1.549c0,0,4.994,0,10.543,0
				c1.156,0,1.439-0.567,1.439-1.567C222.706,100.938,222.706,92.406,222.706,90.752z"/>
		</g>
	</g>
	<path fill="#100E0F" d="M353.462,61.508h-11.65c-0.533,0-0.969,0.439-0.969,0.982v30.12c0,0-2.961,2.166-7.16,2.166
		s-5.313-1.903-5.313-6.018c0-4.119,0-26.27,0-26.27c0-0.544-0.437-0.982-0.97-0.982h-11.821c-0.535,0-0.974,0.438-0.974,0.982
		c0,0,0,16.041,0,28.258s6.812,15.207,16.177,15.207c7.686,0,13.881-4.246,13.881-4.246s0.295,2.233,0.428,2.502
		c0.135,0.264,0.48,0.533,0.857,0.533l7.521-0.035c0.533,0,0.971-0.441,0.971-0.98l-0.004-41.237
		C354.433,61.949,353.999,61.508,353.462,61.508z"/>
	<path fill="#100E0F" d="M385.302,60.129c-6.617,0-11.117,2.951-11.117,2.951V42.279c0-0.543-0.434-0.979-0.969-0.979h-11.773
		c-0.532,0-0.969,0.438-0.969,0.979v61.433c0,0.543,0.437,0.981,0.971,0.981c0.003,0,8.166,0,8.168,0
		c0.369,0,0.646-0.188,0.854-0.521c0.203-0.33,0.496-2.832,0.496-2.832s4.813,4.563,13.928,4.563
		c10.699,0,16.836-5.428,16.836-24.36C401.724,62.604,391.923,60.129,385.302,60.129z M380.708,94.74
		c-4.041-0.123-6.783-1.957-6.783-1.957V73.33c0,0,2.705-1.656,6.021-1.953c4.195-0.375,8.236,0.891,8.236,10.897
		C388.185,92.828,386.359,94.912,380.708,94.74z"/>
	<path fill="#100E0F" d="M256.448,61.41h-8.808c0,0-0.014-11.632-0.014-11.636c0-0.438-0.229-0.659-0.736-0.659h-12
		c-0.467,0-0.719,0.204-0.719,0.653v12.022c0,0-6.014,1.453-6.42,1.567c-0.404,0.119-0.703,0.492-0.703,0.938v7.555
		c0,0.543,0.434,0.982,0.971,0.982h6.152c0,0,0,7.899,0,18.174c0,13.5,9.471,14.826,15.858,14.826c2.921,0,6.412-0.939,6.988-1.15
		c0.351-0.127,0.553-0.49,0.553-0.881l0.011-8.313c0-0.539-0.459-0.979-0.976-0.979c-0.512,0-1.823,0.209-3.178,0.209
		c-4.324,0-5.791-2.012-5.791-4.615c0-2.602,0-17.271,0-17.271h8.809c0.535,0,0.972-0.438,0.972-0.98v-9.463
		C257.419,61.848,256.984,61.41,256.448,61.41z"/>
</g>
<g>
	<path fill="#191717" d="M60.387,13.521C27.041,13.521,0,40.556,0,73.91c0,26.68,17.304,49.313,41.297,57.301
		c3.019,0.561,4.126-1.312,4.126-2.904c0-1.438-0.056-6.197-0.082-11.242c-16.8,3.652-20.345-7.125-20.345-7.125
		c-2.747-6.979-6.705-8.836-6.705-8.836c-5.479-3.748,0.413-3.672,0.413-3.672c6.063,0.426,9.257,6.226,9.257,6.226
		c5.387,9.229,14.127,6.563,17.573,5.021c0.542-3.902,2.104-6.568,3.834-8.076c-13.413-1.524-27.516-6.705-27.516-29.844
		c0-6.592,2.358-11.979,6.225-16.209c-0.627-1.521-2.694-7.662,0.585-15.98c0,0,5.069-1.623,16.608,6.191
		c4.816-1.34,9.982-2.011,15.115-2.033c5.132,0.022,10.302,0.693,15.128,2.033c11.525-7.814,16.59-6.191,16.59-6.191
		c3.287,8.318,1.222,14.459,0.594,15.98c3.871,4.229,6.216,9.618,6.216,16.209c0,23.195-14.127,28.301-27.574,29.797
		c2.166,1.873,4.097,5.549,4.097,11.182c0,8.08-0.067,14.584-0.067,16.572c0,1.607,1.087,3.49,4.146,2.898
		c23.98-7.994,41.263-30.623,41.263-57.295C120.774,40.556,93.737,13.521,60.387,13.521z"/>
	<path fill="#191717" d="M22.872,100.225c-0.135,0.301-0.604,0.392-1.035,0.187c-0.438-0.197-0.686-0.605-0.542-0.908
		c0.13-0.31,0.604-0.396,1.04-0.188C22.772,99.51,23.022,99.924,22.872,100.225L22.872,100.225z"/>
	<path fill="#191717" d="M25.317,102.953c-0.288,0.268-0.853,0.145-1.231-0.279c-0.396-0.42-0.469-0.982-0.177-1.254
		c0.297-0.269,0.843-0.144,1.236,0.277C25.542,102.125,25.619,102.682,25.317,102.953L25.317,102.953z"/>
	<path fill="#191717" d="M27.699,106.43c-0.37,0.258-0.978,0.019-1.352-0.52c-0.37-0.537-0.37-1.185,0.009-1.439
		c0.374-0.258,0.973-0.025,1.352,0.506C28.077,105.523,28.077,106.168,27.699,106.43L27.699,106.43z"/>
	<path fill="#191717" d="M30.961,109.791c-0.331,0.365-1.036,0.268-1.552-0.23c-0.528-0.483-0.677-1.178-0.346-1.543
		c0.336-0.365,1.045-0.264,1.563,0.23C31.153,108.734,31.312,109.43,30.961,109.791L30.961,109.791z"/>
	<path fill="#191717" d="M35.461,111.742c-0.146,0.473-0.824,0.688-1.509,0.485c-0.686-0.207-1.132-0.762-0.992-1.237
		c0.143-0.478,0.824-0.699,1.514-0.484C35.154,110.711,35.602,111.26,35.461,111.742L35.461,111.742z"/>
	<path fill="#191717" d="M40.402,112.104c0.019,0.498-0.563,0.91-1.279,0.92c-0.724,0.019-1.309-0.387-1.313-0.877
		c0-0.504,0.566-0.912,1.289-0.924C39.813,111.209,40.402,111.609,40.402,112.104L40.402,112.104z"/>
	<path fill="#191717" d="M45.002,111.32c0.086,0.486-0.413,0.984-1.126,1.117c-0.701,0.129-1.352-0.172-1.438-0.651
		c-0.087-0.498,0.421-0.996,1.121-1.125C44.27,110.535,44.911,110.828,45.002,111.32L45.002,111.32z"/>
</g>
<g>
	<path d="M156.285,28.835V12.158h-2.68v-2.68h2.68V8.559c0-2.72,0.64-5.199,2.239-6.759C159.844,0.52,161.604,0,163.244,0
		c1.279,0,2.319,0.28,2.999,0.56l-0.479,2.72c-0.521-0.24-1.2-0.44-2.24-0.44c-3,0-3.76,2.6-3.76,5.599v1.04h4.68v2.68h-4.68v16.677
		H156.285z"/>
	<path d="M184.602,18.997c0,7.159-4.998,10.278-9.638,10.278c-5.199,0-9.278-3.839-9.278-9.958c0-6.439,4.279-10.238,9.598-10.238
		C180.843,9.078,184.602,13.118,184.602,18.997z M169.285,19.197c0,4.239,2.398,7.438,5.838,7.438c3.359,0,5.88-3.159,5.88-7.519
		c0-3.28-1.64-7.399-5.8-7.399C171.084,11.718,169.285,15.557,169.285,19.197z"/>
	<path d="M189.045,0.44h3.52v28.395h-3.52V0.44z"/>
	<path d="M198.485,0.44h3.519v28.395h-3.519V0.44z"/>
	<path d="M225.441,18.997c0,7.159-4.998,10.278-9.637,10.278c-5.199,0-9.279-3.839-9.279-9.958c0-6.439,4.279-10.238,9.598-10.238
		C221.683,9.078,225.441,13.118,225.441,18.997z M210.124,19.197c0,4.239,2.398,7.438,5.838,7.438c3.359,0,5.881-3.159,5.881-7.519
		c0-3.28-1.641-7.399-5.801-7.399C211.923,11.718,210.124,15.557,210.124,19.197z"/>
	<path d="M231.005,9.478l2.6,9.838c0.52,2.16,1.039,4.16,1.398,6.159h0.121c0.439-1.96,1.08-4.04,1.719-6.119l3.16-9.878h2.959
		l3,9.679c0.721,2.319,1.279,4.359,1.719,6.319h0.121c0.32-1.96,0.84-4,1.48-6.279l2.758-9.719h3.48l-6.238,19.357h-3.201
		l-2.959-9.238c-0.68-2.16-1.24-4.08-1.719-6.359h-0.08c-0.48,2.319-1.08,4.319-1.76,6.399l-3.119,9.198h-3.201l-5.838-19.357
		H231.005z"/>
	<path d="M283.722,23.516c0,2.04,0.041,3.8,0.16,5.319h-3.119l-0.201-3.16h-0.08c-0.879,1.56-2.959,3.6-6.398,3.6
		c-3.039,0-6.678-1.72-6.678-8.479V9.478h3.52v10.678c0,3.68,1.158,6.199,4.318,6.199c2.359,0,4-1.64,4.639-3.24
		c0.201-0.479,0.32-1.12,0.32-1.799V9.478h3.52V23.516z"/>
	<path d="M289.083,25.276c1.08,0.64,2.92,1.36,4.68,1.36c2.52,0,3.719-1.24,3.719-2.879c0-1.68-1-2.56-3.559-3.52
		c-3.52-1.28-5.158-3.159-5.158-5.479c0-3.12,2.559-5.679,6.678-5.679c1.959,0,3.68,0.52,4.719,1.2l-0.84,2.56
		c-0.76-0.479-2.158-1.16-3.959-1.16c-2.08,0-3.199,1.2-3.199,2.64c0,1.6,1.119,2.32,3.639,3.319c3.32,1.24,5.08,2.919,5.08,5.799
		c0,3.439-2.68,5.839-7.199,5.839c-2.119,0-4.078-0.56-5.439-1.36L289.083,25.276z"/>
	<path d="M331.4,18.997c0,7.159-4.998,10.278-9.639,10.278c-5.199,0-9.277-3.839-9.277-9.958c0-6.439,4.279-10.238,9.598-10.238
		C327.64,9.078,331.4,13.118,331.4,18.997z M316.083,19.197c0,4.239,2.398,7.438,5.838,7.438c3.359,0,5.879-3.159,5.879-7.519
		c0-3.28-1.639-7.399-5.799-7.399C317.882,11.718,316.083,15.557,316.083,19.197z"/>
	<path d="M335.843,14.718c0-2.04-0.039-3.639-0.16-5.239h3.119l0.201,3.2h0.08c0.959-1.8,3.199-3.6,6.398-3.6
		c2.68,0,6.838,1.6,6.838,8.239v11.518h-3.52V17.677c0-3.12-1.158-5.719-4.479-5.719c-2.279,0-4.08,1.64-4.719,3.599
		c-0.16,0.44-0.24,1.04-0.24,1.64v11.638h-3.52V14.718z"/>
</g>
</svg>
